<?xml version="1.0" encoding="utf-8"?>
<!-- Generator: Adobe Illustrator 22.0.0, SVG Export Plug-In . SVG Version: 6.00 Build 0)  -->
<svg version="1.1" id="Layer_1" xmlns="http://www.w3.org/2000/svg" xmlns:xlink="http://www.w3.org/1999/xlink" x="0px" y="0px"
	 viewBox="0 0 725.9 220.3" style="enable-background:new 0 0 725.9 220.3;" xml:space="preserve">
<style type="text/css">
	.st0{fill:#FFFFFF;}
	.st1{fill:url(#SVGID_1_);}
	.st2{fill:url(#SVGID_2_);}
	.st3{fill:url(#SVGID_3_);}
	.st4{fill:url(#SVGID_4_);}
	.st5{fill:url(#SVGID_5_);}
	.st6{fill:url(#SVGID_6_);}
	.st7{fill:url(#SVGID_7_);}
	.st8{fill:none;stroke:#58595B;stroke-width:6;stroke-miterlimit:10;}
	.st9{fill:#414042;}
</style>
<title>Asset 3</title>
<g id="Layer_2_1_">
	<g id="Layer_1-2">
		<ellipse class="st0" cx="108" cy="110.2" rx="105.1" ry="107.2"/>
		
			<linearGradient id="SVGID_1_" gradientUnits="userSpaceOnUse" x1="0" y1="111.855" x2="216" y2="111.855" gradientTransform="matrix(1 0 0 -1 0 222)">
			<stop  offset="0" style="stop-color:#ED1C24"/>
			<stop  offset="0.58" style="stop-color:#BE1E2D"/>
		</linearGradient>
		<path class="st1" d="M108,220.3c-59.5,0-108-49.4-108-110.1S48.5,0,108,0s108,49.4,108,110.2S167.6,220.3,108,220.3z M108,5.9
			C51.7,5.9,5.8,52.7,5.8,110.2S51.7,214.4,108,214.4s102.2-46.8,102.2-104.2S164.3,5.9,108,5.9z"/>
		
			<linearGradient id="SVGID_2_" gradientUnits="userSpaceOnUse" x1="27.58" y1="69.31" x2="54.74" y2="69.31" gradientTransform="matrix(1 0 0 -1 0 222)">
			<stop  offset="0" style="stop-color:#ED1C24"/>
			<stop  offset="0.58" style="stop-color:#BE1E2D"/>
		</linearGradient>
		<circle class="st2" cx="41.2" cy="152.7" r="13.6"/>
		
			<linearGradient id="SVGID_3_" gradientUnits="userSpaceOnUse" x1="93.86" y1="191.85" x2="121.02" y2="191.85" gradientTransform="matrix(1 0 0 -1 0 222)">
			<stop  offset="0" style="stop-color:#ED1C24"/>
			<stop  offset="0.58" style="stop-color:#BE1E2D"/>
		</linearGradient>
		<circle class="st3" cx="107.4" cy="30.1" r="13.6"/>
		
			<linearGradient id="SVGID_4_" gradientUnits="userSpaceOnUse" x1="160.74" y1="69.31" x2="187.9" y2="69.31" gradientTransform="matrix(1 0 0 -1 0 222)">
			<stop  offset="0" style="stop-color:#ED1C24"/>
			<stop  offset="0.58" style="stop-color:#BE1E2D"/>
		</linearGradient>
		<circle class="st4" cx="174.3" cy="152.7" r="13.6"/>
		
			<linearGradient id="SVGID_5_" gradientUnits="userSpaceOnUse" x1="14.59" y1="136.685" x2="90.65" y2="136.685" gradientTransform="matrix(1 0 0 -1 0 222)">
			<stop  offset="0" style="stop-color:#ED1C24"/>
			<stop  offset="0.58" style="stop-color:#BE1E2D"/>
		</linearGradient>
		<path class="st5" d="M42.9,122.2l-5.8,3.4c-8.4-38.4,15.4-76.5,53.6-85.8V22.8c-48.2,9.4-79.7,56.1-70.4,104.4
			c0.5,2.4,1,4.8,1.7,7.2l-7.4,4.3l5.4,9.3l28.3-16.3L42.9,122.2z"/>
		
			<linearGradient id="SVGID_6_" gradientUnits="userSpaceOnUse" x1="123.37" y1="141.07" x2="196.7551" y2="141.07" gradientTransform="matrix(1 0 0 -1 0 222)">
			<stop  offset="0" style="stop-color:#ED1C24"/>
			<stop  offset="0.58" style="stop-color:#BE1E2D"/>
		</linearGradient>
		<path class="st6" d="M134.1,25.1v-7.9h-10.8v32.6h10.8v-7c35.3,13.8,53.9,52.6,42.6,88.8l13,13c19.1-45.3-2.2-97.5-47.5-116.6
			C139.6,27,136.9,26,134.1,25.1z"/>
		
			<linearGradient id="SVGID_7_" gradientUnits="userSpaceOnUse" x1="44.65" y1="46.0942" x2="175.64" y2="46.0942" gradientTransform="matrix(1 0 0 -1 0 222)">
			<stop  offset="0" style="stop-color:#ED1C24"/>
			<stop  offset="0.58" style="stop-color:#BE1E2D"/>
		</linearGradient>
		<path class="st7" d="M145.8,159.9l6.4,7.2c-28.8,22.6-70,20.1-95.8-5.9l-11.8,11.8c32.1,32.3,83.3,35.1,118.8,6.6l4.2,4.7l8-7.2
			l-21.8-24.3L145.8,159.9z"/>
		<line class="st8" x1="254" y1="11.3" x2="254" y2="209"/>
		<path class="st9" d="M315.6,77.1c0,5.6-4.1,10-10.8,10c-6.3,0-10.4-4.4-10.4-10c0-5.7,4.2-10,10.6-10S315.5,71.4,315.6,77.1z
			 M295,159.3V95h20v64.3L295,159.3z"/>
		<path class="st9" d="M331.7,71.9c5.3-1,15.8-1.9,25.8-1.9c12.2,0,19.7,1.2,26.2,5c6.6,3.3,10.7,10.1,10.5,17.5
			c0,7.8-4.6,15.1-14.5,18.8v0.3c10.1,2.7,17.6,10.4,17.6,21.7c0,7.4-3.4,14.3-9.2,18.8c-6.5,5.2-17.2,8.1-34.8,8.1
			c-7.2,0.1-14.5-0.4-21.6-1.3V71.9z M351.6,105.8h6.5c10.6,0,16.1-4.4,16.1-11s-5.1-10.3-14.1-10.3c-2.8-0.1-5.7,0.1-8.5,0.6
			L351.6,105.8z M351.6,145c2.5,0.3,5.1,0.4,7.7,0.4c9.1,0,17.1-3.5,17.1-12.8c0-8.9-7.9-12.4-17.9-12.4h-6.8V145z"/>
		<path class="st9" d="M431,77.1c0,5.6-4.1,10-10.8,10c-6.3,0-10.4-4.4-10.4-10c0-5.7,4.2-10,10.6-10S430.9,71.4,431,77.1z
			 M410.4,159.3V95h20v64.3L410.4,159.3z"/>
		<path class="st9" d="M509.8,126.5c0,23.5-16.6,34.2-33.9,34.2c-18.7,0-33.2-12.4-33.2-33.1s13.7-34.1,34.4-34.1
			C496.7,93.5,509.8,107,509.8,126.5z M463.3,127.1c0,11,4.6,19.3,13.2,19.3c7.8,0,12.7-7.8,12.7-19.4c0-9.5-3.6-19.2-12.7-19.2
			C466.9,107.8,463.3,117.6,463.3,127.1z"/>
		<path class="st9" d="M523.5,138.6c6.9,3.6,14.5,5.5,22.2,5.6c9.2,0,14.1-3.8,14.1-9.6c0-5.4-4.2-8.6-14.8-12.4
			c-14.8-5.2-24.4-13.3-24.4-26.2c0-15.1,12.7-26.6,33.5-26.6c10.1,0,17.4,2,22.6,4.5l-4.4,16.1c-5.8-2.8-12.1-4.2-18.5-4.2
			c-8.7,0-12.9,4-12.9,8.6c0,5.6,4.9,8.1,16.4,12.4c15.7,5.9,23,14,23,26.5c0,14.8-11.3,27.5-35.7,27.5c-10,0-20.1-2.7-25-5.5
			L523.5,138.6z"/>
		<path class="st9" d="M613.4,77.1c0,5.6-4.1,10-10.8,10c-6.3,0-10.4-4.4-10.4-10c0-5.7,4.2-10,10.6-10S613.3,71.4,613.4,77.1z
			 M592.8,159.3V95h20v64.3L592.8,159.3z"/>
		<path class="st9" d="M628.8,115.5c0-8-0.3-14.8-0.5-20.5h16.9l0.8,8.7h0.4c2.7-4.1,8.5-10.2,19.4-10.2c8.4,0,14.8,4.3,17.6,11h0.3
			c2.2-3.2,5-5.9,8.4-7.8c3.7-2.2,7.9-3.3,12.2-3.2c12.3,0,21.7,8.7,21.7,27.9v37.9h-19.5v-34.9c0-9.3-3-14.7-9.5-14.7
			c-4.6,0-7.8,3.2-9.2,7c-0.5,1.6-0.7,3.4-0.7,5.1v37.6h-19.5v-36c0-8.1-2.9-13.6-9.3-13.6c-5.1,0-8.2,3.9-9.4,7.2
			c-0.5,1.6-0.8,3.3-0.8,5.1v37.4h-19.5V115.5z"/>
	</g>
</g>
</svg>
