<svg xmlns="http://www.w3.org/2000/svg" xmlns:xlink="http://www.w3.org/1999/xlink" viewBox="0 0 364.4 371.65"><defs><style>.cls-1{fill:#fff;}.cls-2{fill:url(#Test);}.cls-3{fill:url(#Test-2);}.cls-4{fill:url(#Test-3);}.cls-5{fill:url(#Test-4);}.cls-6{fill:url(#Test-5);}.cls-7{fill:url(#Test-6);}.cls-8{fill:url(#Test-7);}</style><linearGradient id="Test" y1="185.82" x2="364.4" y2="185.82" gradientUnits="userSpaceOnUse"><stop offset="0" stop-color="#ed1c24"/><stop offset="0.58" stop-color="#be1e2d"/></linearGradient><linearGradient id="Test-2" x1="46.54" y1="257.59" x2="92.35" y2="257.59" xlink:href="#Test"/><linearGradient id="Test-3" x1="158.36" y1="50.87" x2="204.17" y2="50.87" xlink:href="#Test"/><linearGradient id="Test-4" x1="271.18" y1="257.59" x2="316.99" y2="257.59" xlink:href="#Test"/><linearGradient id="Test-5" x1="24.68" y1="143.93" x2="152.93" y2="143.93" xlink:href="#Test"/><linearGradient id="Test-6" x1="208.14" y1="136.51" x2="331.87" y2="136.51" xlink:href="#Test"/><linearGradient id="Test-7" x1="75.32" y1="296.76" x2="296.32" y2="296.76" xlink:href="#Test"/></defs><title>Asset 1</title><g id="Layer_2" data-name="Layer 2"><g id="Layer_1-2" data-name="Layer 1"><ellipse class="cls-1" cx="182.2" cy="185.82" rx="177.3" ry="180.82"/><path class="cls-2" d="M182.2,371.65C81.73,371.65,0,288.29,0,185.82S81.73,0,182.2,0,364.4,83.36,364.4,185.82,282.66,371.65,182.2,371.65ZM182.2,10C87.14,10,9.8,88.87,9.8,185.82S87.14,361.65,182.2,361.65s172.39-78.88,172.39-175.83S277.26,10,182.2,10Z"/><circle class="cls-3" cx="69.45" cy="257.59" r="22.9"/><circle class="cls-4" cx="181.27" cy="50.87" r="22.9"/><circle class="cls-5" cx="294.08" cy="257.59" r="22.9"/><path class="cls-6" d="M72.36,206.23l-9.83,5.67a122,122,0,0,1,90.4-144.69V38.39C83.85,51.86,31.55,112.82,31.55,185.78a149.75,149.75,0,0,0,5.63,40.75l-12.5,7.23,9.07,15.71,47.68-27.53Z"/><path class="cls-7" d="M226.28,42.38V29H208.14V84.07h18.14V72.22A122,122,0,0,1,298.19,222.1L320.11,244a149.32,149.32,0,0,0,11.76-58.24C331.87,118.49,287.38,61.41,226.28,42.38Z"/><path class="cls-8" d="M246,269.71l10.84,12.08a121.77,121.77,0,0,1-161.66-10l-19.9,19.9a149.87,149.87,0,0,0,200.4,11.12l7.1,7.91,13.5-12.12-36.78-41Z"/></g></g></svg>